<svg viewBox="0 0 800 800" xmlns="http://www.w3.org/2000/svg"><path d="M636.3030878994823,291.6101979767455 L636.3817455087246,254.31787474392877 M636.3817455087246,254.31787474392877 L665.8924095368403,273.6861259097231 M665.8924095368403,273.6861259097231 L690.6849286605766,295.1548544182311 M690.6849286605766,295.1548544182311 L710.3137063356405,318.3453225371115 M710.3137063356405,318.3453225371115 L724.4234581311599,342.8474084602696 M724.4234581311599,342.8474084602696 L732.7558023078519,368.2267183773541 M732.7558023078519,368.2267183773541 L735.1543922387945,394.03209143736524 M735.1543922387945,394.03209143736524 L731.5682504008053,419.80352253803954 M731.5682504008053,419.80352253803954 L722.0532736080745,445.0803850300585 M722.0532736080745,445.0803850300585 L706.7717402915823,469.4096310974793 M706.7717402915823,469.4096310974793 L685.9900026537168,492.354042538517 M685.9900026537168,492.354042538517 L660.0742270901823,513.5002836653781 M660.0742270901823,513.5002836653781 L629.4841345534186,532.4665125550448 M629.4841345534186,532.4665125550448 L594.7649901393526,548.909504601784 M594.7649901393526,548.909504601784 L556.5379648773724,562.5311521456001 M556.5379648773724,562.5311521456001 L515.4889399445641,573.0841212208081 M515.4889399445641,573.0841212208081 L472.35599633475243,580.3765464064059 M472.35599633475243,580.3765464064059 L427.9157599681126,584.2756982081821 M427.9157599681126,584.2756982081821 L382.96920251103757,584.7105950972848 M382.96920251103757,584.7105950972848 L338.32669074796337,581.6732954783429 M338.32669074796337,581.6732954783429 L294.79290811001806,575.2191270640469 M294.79290811001806,575.2191270640469 L253.15195203189128,565.4655659195882 M253.15195203189128,565.4655659195882 L214.15286802936015,552.589987794986 M214.15286802936015,552.589987794986 L178.4958074027514,536.8262679386576 M178.4958074027514,536.8262679386576 L146.81917833365728,518.4603356623207 M146.81917833365728,518.4603356623207 L119.6882151598677,497.82470280747617 M119.6882151598677,497.82470280747617 L97.5848759116202,475.29217635061815 M97.5848759116202,475.29217635061815 L80.8993367910482,451.26894349376664 M80.8993367910482,451.26894349376664 L69.9233769838894,426.1870004278006 M69.9233769838894,426.1870004278006 L64.84560776120554,400.4961812332258 M64.84560776120554,400.4961812332258 L65.74864814040683,374.65599854218743 M65.74864814040683,374.65599854218743 L72.60812968332414,349.1273897135168 M72.60812968332414,349.1273897135168 L85.29384616126964,324.36449379216816 M85.29384616126964,324.36449379216816 L103.57249942744784,300.8065998363015 M103.57249942744784,300.8065998363015 L127.11244798867,278.87058345815143 M127.11244798867,278.87058345815143 L155.48998926539502,258.9436682768531 M155.48998926539502,258.9436682768531 L188.1971323646267,241.37681199711025 M188.1971323646267,241.37681199711025 L224.65077504837433,226.4787723943221 M224.65077504837433,226.4787723943221 L264.2031247342727,214.51095630472958 M264.2031247342727,214.51095630472958 L306.1530463354824,205.68306445655304 M306.1530463354824,205.68306445655304 L349.7581717282956,200.14958520288957 M349.7581717282956,200.14958520288957 L394.2477664863282,198.00727339546535 M394.2477664863282,198.00727339546535 L438.83600941948634,199.29359258619996 M438.83600941948634,199.29359258619996 L482.7353259098982,203.9860593106786 M482.7353259098982,203.9860593106786 L525.1699603678304,212.00261990123596 M525.1699603678304,212.00261990123596 L565.3892772685309,223.20299804274893 M565.3892772685309,223.20299804274893 L602.6806150208118,237.3910357457275 M602.6806150208118,237.3910357457275 L636.3817455087246,254.31787474392877 M636.3030878994823,291.6101979767455 L602.6131841776387,274.6776799251876 M602.6131841776387,274.6776799251876 L565.33425678985,260.4848794217652 M565.33425678985,260.4848794217652 L525.128314544446,249.2807397163791 M525.128314544446,249.2807397163791 L482.7077837366044,241.2614859053445 M482.7077837366044,241.2614859053445 L438.8230525999863,236.56744235792502 M438.8230525999863,236.56744235792502 L394.2496215173858,235.28069087586073 M394.2496215173858,235.28069087586073 L349.77480618053374,237.4237226358198 M349.77480618053374,237.4237226358198 L306.18416940600946,242.9590612360653 M306.18416940600946,242.9590612360653 L264.24819199389015,251.78991865597231 M264.24819199389015,251.78991865597231 L224.70899738461728,263.76175363523436 M224.70899738461728,263.76175363523436 L188.26748901833065,278.6647937351816 M188.26748901833065,278.6647937351816 L155.57124475749154,296.23754289625987 M155.57124475749154,296.23754289625987 L127.20317274250283,316.17113819869263 M127.20317274250283,316.17113819869263 L103.6710938431429,338.11450273839165 M103.6710938431429,338.11450273839165 L85.39856779505567,361.68028176778984 M85.39856779505567,361.68028176778984 L72.71712312849763,386.4514589584073 M72.71712312849763,386.4514589584073 L65.85997717059797,411.9885974766116 M65.85997717059797,411.9885974766116 L64.95728927047202,437.8374060504762 M64.95728927047202,437.8374060504762 L70.03341608766385,463.53679337812144 M70.03341608766385,463.53679337812144 L81.00576256988029,488.62709392176083 M81.00576256988029,488.62709392176083 L97.6857770783921,512.6583244563827 M97.6857770783921,512.6583244563827 L119.781775018134,535.1983460618243 M119.781775018134,535.1983460618243 L146.90370833882844,555.8408377797414 M146.90370833882844,555.8408377797414 L178.56977865756681,574.2128702481743 M178.56977865756681,574.2128702481743 L214.2149400190096,589.9818227728454 M214.2149400190096,589.9818227728454 L253.20099799643913,602.8616726676064 M253.20099799643913,602.8616726676064 L294.82803654057557,612.6184684656835 M294.82803654057557,612.6184684656835 L338.3472624671601,619.0747767054638 M338.3472624671601,619.0747767054638 L382.9748429496158,622.1130831438522 M382.9748429496158,622.1130831438522 L427.9063663865484,621.6780420996733 M427.9063663865484,621.6780420996733 L472.3317398179722,617.7775977470892 M472.3317398179722,617.7775977470892 L515.4502621037294,610.4827546698516 M515.4502621037294,610.4827546698516 L556.4855693134623,599.9262855079837 M556.4855693134623,599.9262855079837 L594.6998289501798,586.3001181312711 M594.6998289501798,586.3001181312711 L629.4073901123407,569.8516671481405 M629.4073901123407,569.8516671481405 L659.9872895379376,550.8791376261443 M659.9872895379376,550.8791376261443 L685.8944436096898,529.7258666059402 M685.8944436096898,529.7258666059402 L706.6692833750379,506.77382145577053 M706.6692833750379,506.77382145577053 L721.9457623810217,482.4364740841917 M721.9457623810217,482.4364740841917 L731.4576143780747,457.1511872721473 M731.4576143780747,457.1511872721473 L735.0426116827792,431.3711591803444 M735.0426116827792,431.3711591803444 L732.6448724939705,405.5571698746782 M732.6448724939705,405.5571698746782 L724.3153537069892,380.16937822994737 M724.3153537069892,380.16937822994737 L710.2103464396314,355.659096462297 M710.2103464396314,355.659096462297 L690.5881433912587,332.4608646381682 M690.5881433912587,332.4608646381682 L665.8039083366397,310.9849431145054 M665.8039083366397,310.9849431145054 L636.3030878994823,291.6101979767455 M233.05191589528664,294.5724342417798 L225.82250593723614,297.8302898158068 M225.82250593723614,297.8302898158068 L217.45189899391895,299.99852967262933 M217.45189899391895,299.99852967262933 L208.42697359465768,300.95088246172173 M208.42697359465768,300.95088246172173 L199.27280417749282,300.63187882373495 M199.27280417749282,300.63187882373495 L190.5219945564001,299.0600980058169 M190.5219945564001,299.0600980058169 L182.6836116521156,296.3270826984756 M182.6836116521156,296.3270826984756 L176.21347518761652,292.5919782406917 M176.21347518761652,292.5919782406917 L171.4876124356365,288.07221154557914 M171.4876124356365,288.07221154557914 L168.78038994491436,283.0307655620535 M168.78038994491436,283.0307655620535 L168.24863255768358,277.7608301575499 M168.24863255768358,277.7608301575499 L169.9226337192868,272.56871151569806 M169.9226337192868,272.56871151569806 L173.70454123366054,267.7560359677542 M173.70454123366054,267.7560359677542 L179.37416477595673,263.6022376487347 M179.37416477595673,263.6022376487347 L186.60185242175208,260.3483733605731 M186.60185242175208,260.3483733605731 L194.96771465787603,258.18321043183107 M194.96771465787603,258.18321043183107 L203.98595991410792,257.23231532807296 M203.98595991410792,257.23231532807296 L213.13304409772044,257.5508234744886 M213.13304409772044,257.5508234744886 L221.87798652862145,259.1202691313878 M221.87798652862145,259.1202691313878 L229.71306439180722,261.849644561534 M229.71306439180722,261.849644561534 L236.18321511110915,265.5806382809046 M236.18321511110915,265.5806382809046 L240.9124081478356,270.09676510170584 M240.9124081478356,270.09676510170584 L243.625514023038,275.1358759237014 M243.625514023038,275.1358759237014 L244.16436007909505,280.4053158347348 M244.16436007909505,280.4053158347348 L242.49702895046877,285.59889216335057 M242.49702895046877,285.59889216335057 L238.7198448044903,290.41464464067576 M238.7198448044903,290.41464464067576 L233.05191589528664,294.5724342417798 M232.47626755570298,487.357296037945 L238.1396454482846,491.5444611747858 M238.1396454482846,491.5444611747858 L241.9031479491725,496.39579932249563 M241.9031479491725,496.39579932249563 L243.54764931313986,501.62963257768337 M243.54764931313986,501.62963257768337 L242.97700635933242,506.9419117829104 M242.97700635933242,506.9419117829104 L240.22376779092315,512.0238694228628 M240.22376779092315,512.0238694228628 L235.4474300651311,516.5799588326807 M235.4474300651311,516.5799588326807 L228.9252930419501,520.3450823665082 M228.9252930419501,520.3450823665082 L221.03640859106622,523.1000642277284 M221.03640859106622,523.1000642277284 L212.2395358555696,524.6844786911184 M212.2395358555696,524.6844786911184 L203.04642418623234,525.0060464572834 M203.04642418623234,525.0060464572834 L193.99194569327386,524.0460387689841 M193.99194569327386,524.0460387689841 L185.60289609958474,521.8603713460806 M185.60289609958474,521.8603713460806 L178.3672271998359,518.5763315291458 M178.3672271998359,518.5763315291458 L172.7055855147975,514.3851269100785 M172.7055855147975,514.3851269100785 L168.9468658870651,509.5306746748951 M168.9468658870651,509.5306746748951 L167.30909835927207,504.2953661294008 M167.30909835927207,504.2953661294008 L167.88688346696784,498.983588401399 M167.88688346696784,498.983588401399 L170.64603633407535,493.9039941232162 M170.64603633407535,493.9039941232162 L175.42570560587606,489.3515885441254 M175.42570560587606,489.3515885441254 L181.94782820318926,485.5906253914516 M181.94782820318926,485.5906253914516 L189.833355560794,482.83932736388124 M189.833355560794,482.83932736388124 L198.624297606969,481.25727626174825 M198.624297606969,481.25727626174825 L207.81026364355878,480.9362099708876 M207.81026364355878,480.9362099708876 L216.85801853086951,481.89474237032385 M216.85801853086951,481.89474237032385 L225.24230684815663,484.0772957070657 M225.24230684815663,484.0772957070657 L232.47626755570298,487.357296037945 M523.6271721540244,319.373344295865 L544.3036391641792,333.69925614500636 M544.3036391641792,333.69925614500636 L560.0752170343198,349.9760528955065 M560.0752170343198,349.9760528955065 L570.4017454319584,367.6523287588626 M570.4017454319584,367.6523287588626 L574.9268910867854,386.1281955601323 M574.9268910867854,386.1281955601323 L573.4909056772632,404.7754212983318 M573.4909056772632,404.7754212983318 L566.1368328907878,422.958691059104 M566.1368328907878,422.958691059104 L553.1098297186927,440.05728904297047 M553.1098297186927,440.05728904297047 L534.8495333469356,455.48644357449996 M534.8495333469356,455.48644357449996 L511.9756316969414,468.7175696093801 M511.9756316969414,468.7175696093801 L485.26705816336704,479.2966926330987 M485.26705816336704,479.2966926330987 L455.6354556318751,486.86037755730666 M455.6354556318751,486.86037755730666 L424.0938539630827,491.1485333056703 M424.0938539630827,491.1485333056703 L391.7216504971226,492.01361146489086 M391.7216504971226,492.01361146489086 L359.6271266579911,489.4258371773212 M359.6271266579911,489.4258371773212 L328.908895058372,483.4742685528539 M328.908895058372,483.4742685528539 L300.6177249834906,474.3636337638125 M300.6177249834906,474.3636337638125 L275.7201427550299,462.40708317617737 M275.7201427550299,462.40708317617737 L255.0650738297387,448.01512679191336 M255.0650738297387,448.01512679191336 L239.35479987097577,431.6812052444187 M239.35479987097577,431.6812052444187 L229.1212017291553,413.964439317487 M229.1212017291553,413.964439317487 L224.70806197402842,395.470185540772 M224.70806197402842,395.470185540772 L226.26000198314657,376.82915916487946 M226.26000198314657,376.82915916487946 L233.71831779767666,358.67583785700197 M233.71831779767666,358.67583785700197 L246.82377385497722,341.6268927297523 M246.82377385497722,341.6268927297523 L265.1261374919585,326.26038961059936 M265.1261374919585,326.26038961059936 L288.00003932897255,313.0964521678671 M288.00003932897255,313.0964521678671 L314.6665458737415,302.5799807147295 M314.6665458737415,302.5799807147295 L344.21969555453995,295.06594886925683 M344.21969555453995,295.06594886925683 L375.6570539698684,290.80774174329156 M375.6570539698684,290.80774174329156 L407.91330246856154,289.9488629873562 M407.91330246856154,289.9488629873562 L439.89582008997786,292.5182501811629 M439.89582008997786,292.5182501811629 L470.5211213314182,298.4293285238034 M470.5211213314182,298.4293285238034 L498.7509876616457,307.4828383195793 M498.7509876616457,307.4828383195793 L523.6271721540244,319.373344295865 M566.6122747321281,294.5724342417798 L560.9443458229244,290.4146446406759 M560.9443458229244,290.4146446406759 L557.167161676946,285.59889216335057 M557.167161676946,285.59889216335057 L555.4998305483197,280.4053158347348 M555.4998305483197,280.4053158347348 L556.0386766043767,275.1358759237014 M556.0386766043767,275.1358759237014 L558.751782479579,270.09676510170596 M558.751782479579,270.09676510170596 L563.4809755163054,265.5806382809046 M563.4809755163054,265.5806382809046 L569.9511262356075,261.849644561534 M569.9511262356075,261.849644561534 L577.7862040987932,259.1202691313878 M577.7862040987932,259.1202691313878 L586.5311465296943,257.5508234744886 M586.5311465296943,257.5508234744886 L595.6782307133068,257.232315328073 M595.6782307133068,257.232315328073 L604.6964759695387,258.18321043183107 M604.6964759695387,258.18321043183107 L613.0623382056626,260.3483733605732 M613.0623382056626,260.3483733605732 L620.2900258514582,263.6022376487348 M620.2900258514582,263.6022376487348 L625.9596493937541,267.75603596775426 M625.9596493937541,267.75603596775426 L629.7415569081279,272.56871151569806 M629.7415569081279,272.56871151569806 L631.4155580697311,277.76083015754995 M631.4155580697311,277.76083015754995 L630.8838006825004,283.0307655620536 M630.8838006825004,283.0307655620536 L628.1765781917783,288.07221154557914 M628.1765781917783,288.07221154557914 L623.4507154397983,292.5919782406917 M623.4507154397983,292.5919782406917 L616.9805789752992,296.3270826984757 M616.9805789752992,296.3270826984757 L609.1421960710146,299.0600980058169 M609.1421960710146,299.0600980058169 L600.3913864499219,300.63187882373495 M600.3913864499219,300.63187882373495 L591.2372170327571,300.95088246172173 M591.2372170327571,300.95088246172173 L582.2122916334957,299.99852967262933 M582.2122916334957,299.99852967262933 L573.8416846901786,297.8302898158068 M573.8416846901786,297.8302898158068 L566.6122747321281,294.5724342417798 M567.1879230717117,487.357296037945 L574.4218837792581,484.0772957070657 M574.4218837792581,484.0772957070657 L582.8061720965452,481.89474237032385 M582.8061720965452,481.89474237032385 L591.8539269838559,480.9362099708876 M591.8539269838559,480.9362099708876 L601.0398930204457,481.25727626174825 M601.0398930204457,481.25727626174825 L609.8308350666208,482.8393273638813 M609.8308350666208,482.8393273638813 L617.7163624242256,485.59062539145174 M617.7163624242256,485.59062539145174 L624.2384850215386,489.3515885441254 M624.2384850215386,489.3515885441254 L629.0181542933393,493.9039941232162 M629.0181542933393,493.9039941232162 L631.7773071604469,498.9835884013991 M631.7773071604469,498.9835884013991 L632.3550922681427,504.2953661294008 M632.3550922681427,504.2953661294008 L630.7173247403497,509.53067467489524 M630.7173247403497,509.53067467489524 L626.9586051126172,514.3851269100785 M626.9586051126172,514.3851269100785 L621.2969634275787,518.5763315291458 M621.2969634275787,518.5763315291458 L614.06129452783,521.8603713460807 M614.06129452783,521.8603713460807 L605.6722449341408,524.0460387689841 M605.6722449341408,524.0460387689841 L596.6177664411823,525.0060464572834 M596.6177664411823,525.0060464572834 L587.4246547718451,524.6844786911184 M587.4246547718451,524.6844786911184 L578.6277820363485,523.1000642277284 M578.6277820363485,523.1000642277284 L570.7388975854647,520.3450823665082 M570.7388975854647,520.3450823665082 L564.2167605622838,516.5799588326807 M564.2167605622838,516.5799588326807 L559.4404228364915,512.0238694228628 M559.4404228364915,512.0238694228628 L556.6871842680823,506.9419117829104 M556.6871842680823,506.9419117829104 L556.1165413142749,501.62963257768337 M556.1165413142749,501.62963257768337 L557.7610426782422,496.39579932249563 M557.7610426782422,496.39579932249563 L561.5245451791301,491.5444611747858 M561.5245451791301,491.5444611747858 L567.1879230717117,487.357296037945 M233.10741370885836,331.8782493965664 L238.7734525671479,327.71906714408175 M238.7734525671479,327.71906714408175 L242.54937539743867,322.90170137320916 M242.54937539743867,322.90170137320916 L244.216146978703,317.706384868959 M244.216146978703,317.706384868959 L243.67747528153185,312.4351790346285 M243.67747528153185,312.4351790346285 L240.96526713670585,307.3943791688934 M240.96526713670585,307.3943791688934 L236.23764269650042,302.8767383445457 M236.23764269650042,302.8767383445457 L229.7696400888731,299.1444936492616 M229.7696400888731,299.1444936492616 L221.93716500852577,296.4142029736749 M221.93716500852577,296.4142029736749 L213.19512895533788,294.8442309920685 M213.19512895533788,294.8442309920685 L204.05108616939808,294.52561602810835 M204.05108616939808,294.52561602810835 L195.03584098135104,295.47683002838374 M195.03584098135104,295.47683002838374 L186.67276350813228,297.64271903582903 M186.67276350813228,297.64271903582903 L179.4474837484761,300.89767438924343 M179.4474837484761,300.89767438924343 L173.77975137980636,305.052865350343 M173.77975137980636,305.052865350343 L169.99910831967793,309.8671541846642 M169.99910831967793,309.8671541846642 L168.32567114083116,315.0610129987534 M168.32567114083116,315.0610129987534 L168.8572588853093,320.33271432770886 M168.8572588853093,320.33271432770886 L171.56358756212356,325.3758493604156 M171.56358756212356,325.3758493604156 L176.28788393716863,329.8971300675564 M176.28788393716863,329.8971300675564 L182.75587230421485,333.63348551083266 M182.75587230421485,333.63348551083266 L190.59165023125996,336.36741607209586 M190.59165023125996,336.36741607209586 L199.33954957432752,337.93972322016253 M199.33954957432752,337.93972322016253 L208.49067288111337,338.2588336768484 M208.49067288111337,338.2588336768484 L217.51259376670842,337.3061619878421 M217.51259376670842,337.3061619878421 L225.8804127872738,335.1371960451467 M225.8804127872738,335.1371960451467 L233.10741370885836,331.8782493965664 M232.53214907201152,524.7274581997337 L225.30060043419104,521.4463667869977 M225.30060043419104,521.4463667869977 L216.9191091590262,519.2630873596593 M216.9191091590262,519.2630873596593 L207.87437400252128,518.304236058269 M207.87437400252128,518.304236058269 L198.69147527058655,518.6254091685097 M198.69147527058655,518.6254091685097 L189.9034702530394,520.2079866041813 M189.9034702530394,520.2079866041813 L182.0205792972361,522.9601998917058 M182.0205792972361,522.9601998917058 L175.50063944924176,526.7224140383962 M175.50063944924176,526.7224140383962 L170.72257241968495,531.2763336402638 M170.72257241968495,531.2763336402638 L167.9643479812862,536.3576169801747 M167.9643479812862,536.3576169801747 L167.38676319672402,541.6711606463698 M167.38676319672402,541.6711606463698 L169.02399089384025,546.9082093782642 M169.02399089384025,546.9082093782642 L172.78146152365974,551.7642749135025 M172.78146152365974,551.7642749135025 L178.4412173556735,555.9568721868793 M178.4412173556735,555.9568721868793 L185.67447304948533,559.2420030789201 M185.67447304948533,559.2420030789201 L194.06072242464202,561.428396587216 M194.06072242464202,561.428396587216 L203.11217669786507,562.3887231750036 M203.11217669786507,562.3887231750036 L212.3022162894615,562.0670485902967 M212.3022162894615,562.0670485902967 L221.09614803253984,560.4821077973177 M221.09614803253984,560.4821077973177 L228.9823938351859,557.7262106823 M228.9823938351859,557.7262106823 L235.5023480945982,553.9598361614082 M235.5023480945982,553.9598361614082 L240.2770857989931,549.4022327349696 M240.2770857989931,549.4022327349696 L243.02939988606602,544.3185860372384 M243.02939988606602,544.3185860372384 L243.5998472863406,539.0045408946562 M243.5998472863406,539.0045408946562 L241.95589025222694,533.7689674506032 M241.95589025222694,533.7689674506032 L238.19363994729497,528.9160159976344 M238.19363994729497,528.9160159976344 L232.53214907201152,524.7274581997337 M259.9488431934337,449.7768044357042 L362.31086840430396,508.9837939576041 M362.31086840430396,508.9837939576041 L502.30234069157683,487.2980129545207 M502.30234069157683,487.2980129545207 L539.6072985460606,406.51348918942364 M539.6072985460606,406.51348918942364 L437.24527312667203,347.5225978831948 M437.24527312667203,347.5225978831948 L297.5779479060005,369.10032967008533 M297.5779479060005,369.10032967008533 L259.9488431934337,449.7768044357042 M566.5567769185564,331.87824939656645 L573.7837778401409,335.1371960451468 M573.7837778401409,335.1371960451468 L582.1515968607063,337.3061619878421 M582.1515968607063,337.3061619878421 L591.1735177463014,338.25883367684844 M591.1735177463014,338.25883367684844 L600.3246410530871,337.9397232201626 M600.3246410530871,337.9397232201626 L609.0725403961547,336.367416072096 M609.0725403961547,336.367416072096 L616.9083183231999,333.6334855108327 M616.9083183231999,333.6334855108327 L623.3763066902461,329.89713006755653 M623.3763066902461,329.89713006755653 L628.1006030652912,325.3758493604157 M628.1006030652912,325.3758493604157 L630.8069317421053,320.33271432770886 M630.8069317421053,320.33271432770886 L631.3385194865836,315.0610129987535 M631.3385194865836,315.0610129987535 L629.6650823077368,309.8671541846642 M629.6650823077368,309.8671541846642 L625.8844392476083,305.052865350343 M625.8844392476083,305.052865350343 L620.2167068789382,300.89767438924326 M620.2167068789382,300.89767438924326 L612.9914271192824,297.64271903582903 M612.9914271192824,297.64271903582903 L604.6283496460636,295.47683002838374 M604.6283496460636,295.47683002838374 L595.6131044580167,294.52561602810835 M595.6131044580167,294.52561602810835 L586.4690616720768,294.8442309920685 M586.4690616720768,294.8442309920685 L577.727025618889,296.4142029736749 M577.727025618889,296.4142029736749 L569.8945505385417,299.14449364926173 M569.8945505385417,299.14449364926173 L563.4265479309142,302.8767383445457 M563.4265479309142,302.8767383445457 L558.6989234907089,307.3943791688934 M558.6989234907089,307.3943791688934 L555.9867153458829,312.4351790346286 M555.9867153458829,312.4351790346286 L555.4480436487116,317.706384868959 M555.4480436487116,317.706384868959 L557.1148152299761,322.90170137320916 M557.1148152299761,322.90170137320916 L560.8907380602668,327.71906714408175 M560.8907380602668,327.71906714408175 L566.5567769185564,331.87824939656645 M567.1320415554031,524.7274581997337 L561.4705506801198,528.9160159976344 M561.4705506801198,528.9160159976344 L557.7083003751878,533.7689674506032 M557.7083003751878,533.7689674506032 L556.0643433410742,539.0045408946562 M556.0643433410742,539.0045408946562 L556.6347907413488,544.3185860372384 M556.6347907413488,544.3185860372384 L559.3871048284217,549.4022327349696 M559.3871048284217,549.4022327349696 L564.1618425328165,553.9598361614082 M564.1618425328165,553.9598361614082 L570.6817967922289,557.7262106823 M570.6817967922289,557.7262106823 L578.568042594875,560.4821077973177 M578.568042594875,560.4821077973177 L587.3619743379533,562.0670485902967 M587.3619743379533,562.0670485902967 L596.5520139295497,562.3887231750036 M596.5520139295497,562.3887231750036 L605.6034682027727,561.428396587216 M605.6034682027727,561.428396587216 L613.9897175779294,559.2420030789201 M613.9897175779294,559.2420030789201 L621.2229732717416,555.9568721868791 M621.2229732717416,555.9568721868791 L626.8827291037551,551.7642749135025 M626.8827291037551,551.7642749135025 L630.6401997335745,546.9082093782642 M630.6401997335745,546.9082093782642 L632.2774274306908,541.6711606463698 M632.2774274306908,541.6711606463698 L631.6998426461286,536.3576169801747 M631.6998426461286,536.3576169801747 L628.9416182077298,531.2763336402638 M628.9416182077298,531.2763336402638 L624.163551178173,526.7224140383964 M624.163551178173,526.7224140383964 L617.6436113301787,522.9601998917058 M617.6436113301787,522.9601998917058 L609.7607203743754,520.2079866041813 M609.7607203743754,520.2079866041813 L600.9727153568281,518.6254091685097 M600.9727153568281,518.6254091685097 L591.7898166248934,518.304236058269 M591.7898166248934,518.304236058269 L582.7450814683884,519.2630873596593 M582.7450814683884,519.2630873596593 L574.3635901932237,521.4463667869978 M574.3635901932237,521.4463667869978 L567.1320415554031,524.7274581997337 M233.10741370885836,331.8782493965664 L233.05191589528664,294.5724342417798 M232.53214907201152,524.7274581997337 L232.47626755570298,487.357296037945 M523.6271721540244,319.373344295865 L523.750974108751,207.28172571778265 M523.750974108751,207.28172571778265 L544.4481558121369,221.59320213361573 M544.4481558121369,221.59320213361573 L560.23555690955,237.8536065569943 M560.23555690955,237.8536065569943 L570.5724720836821,255.51209141091587 M570.5724720836821,255.51209141091587 L575.1022050034701,273.9693743637059 M575.1022050034701,273.9693743637059 L573.6648398234491,292.5978562693542 M573.6648398234491,292.5978562693542 L566.303455477378,310.7628605305237 M566.303455477378,310.7628605305237 L553.263447355517,327.84429337743956 M553.263447355517,327.84429337743956 L534.9848875139041,343.2579676849763 M534.9848875139041,343.2579676849763 L512.0880814969667,356.4758255794363 M512.0880814969667,356.4758255794363 L485.3527426405509,367.0443443882884 M485.3527426405509,367.0443443882884 L455.6914295282935,374.6004501412619 M455.6914295282935,374.6004501412619 L424.1181917299212,378.8843098627115 M424.1181917299212,378.8843098627115 L391.7135145178942,379.74852143557285 M391.7135145178942,379.74852143557285 L359.58679697441727,377.163339513587 M359.58679697441727,377.163339513587 L328.8377594177712,371.2177339258141 M328.8377594177712,371.2177339258141 L300.5182296237825,362.11622978026526 M300.5182296237825,362.11622978026526 L275.5957058839745,350.17166650558994 M275.5957058839745,350.17166650558994 L254.91996514063555,335.7941458857387 M254.91996514063555,335.7941458857387 L239.19399078795422,319.47661695187827 M239.19399078795422,319.47661695187827 L228.95019207167738,301.7776422375321 M228.95019207167738,301.7776422375321 L224.53268947482348,283.3019724015692 M224.53268947482348,283.3019724015692 L226.08624158954035,264.6796898271158 M226.08624158954035,264.6796898271158 L233.55207783271206,246.54463386856185 M233.55207783271206,246.54463386856185 L246.67069603399045,229.51285362917898 M246.67069603399045,229.51285362917898 L264.9914074302822,214.16183041985386 M264.9914074302822,214.16183041985386 L287.88821363498977,201.01116078078115 M287.88821363498977,201.01116078078115 L314.5814012142542,190.50529322863542 M314.5814012142542,190.50529322863542 L344.1641042817446,182.99884030574276 M344.1641042817446,182.99884030574276 L375.63288995670297,178.74492905675652 M375.63288995670297,178.74492905675652 L407.92137986488797,177.8869168561477 M407.92137986488797,177.8869168561477 L439.93586676614024,180.4537117764161 M439.93586676614024,180.4537117764161 L470.5917877621598,186.35882728509847 M470.5917877621598,186.35882728509847 L498.8498909788092,195.40320672350813 M498.8498909788092,195.40320672350813 L523.750974108751,207.28172571778265 M566.5567769185564,331.87824939656645 L566.6122747321281,294.5724342417798 M567.1320415554031,524.7274581997337 L567.1879230717117,487.357296037945 M259.9488431934337,449.7768044357042 L259.8087657435163,337.66639121855155 M362.31086840430396,508.9837939576041 L362.2732553294356,396.81410421217987 M259.8087657435163,337.66639121855155 L362.2732553294356,396.81410421217987 M297.5779479060005,369.10032967008533 L297.47569943906313,257.0708892473219 M297.47569943906313,257.0708892473219 L259.8087657435163,337.66639121855155 M502.30234069157683,487.2980129545207 L502.40502200409713,375.1500199271284 M362.2732553294356,396.81410421217987 L502.40502200409713,375.1500199271284 M437.24527312667203,347.5225978831948 L437.28266977831663,235.51485385414068 M437.28266977831663,235.51485385414068 L297.47569943906313,257.0708892473219 M539.6072985460606,406.51348918942364 L539.7471595735904,294.4464692811602 M502.40502200409713,375.1500199271284 L539.7471595735904,294.4464692811602 M539.7471595735904,294.4464692811602 L437.28266977831663,235.51485385414068 M475.2987134640031,235.18095471296309 L490.6865122869539,246.36706158957446 M490.6865122869539,246.36706158957446 L501.1846701091758,259.2969896727633 M501.1846701091758,259.2969896727633 L506.22447277904314,273.27558420586337 M506.22447277904314,273.27558420586337 L505.53027349369785,287.5502438756963 M505.53027349369785,287.5502438756963 L499.1351886133799,301.35127448185335 M499.1351886133799,301.35127448185335 L487.3802427669465,313.93343048446 M487.3802427669465,313.93343048446 L470.89677258439076,324.6163257213373 M470.89677258439076,324.6163257213373 L450.57289133814953,332.8215752175428 M450.57289133814953,332.8215752175428 L427.5057474026812,338.1044978990518 M427.5057474026812,338.1044978990518 L402.9420327697688,340.17858391026783 M402.9420327697688,340.17858391026783 L378.21010668919786,338.9313017885769 M378.21010668919786,338.9313017885769 L354.64754119751524,334.43032405776404 M354.64754119751524,334.43032405776404 L333.52805485006047,326.91978924624226 M333.52805485006047,326.91978924624226 L315.99213969345175,316.8068124742406 M315.99213969345175,316.8068124742406 L302.9851548743523,304.63907172069503 M302.9851548743523,304.63907172069503 L295.20636350882654,291.07475186260626 M295.20636350882654,291.07475186260626 L293.0716649319031,276.8465834560482 M293.0716649319031,276.8465834560482 L296.69189378501596,262.7220452201268 M296.69189378501596,262.7220452201268 L305.86775321248234,249.46187073304148 M305.86775321248234,249.46187073304148 L320.10144665271196,237.779213573287 M320.10144665271196,237.779213573287 L338.62417166775236,228.3015652281572 M338.62417166775236,228.3015652281572 L360.4378688787397,221.53740409193858 M360.4378688787397,221.53740409193858 L384.3689120612475,217.84932096825588 M384.3689120612475,217.84932096825588 L409.1309121664795,217.43490571354053 M409.1309121664795,217.43490571354053 L433.39322784571385,220.3163524759468 M433.39322784571385,220.3163524759468 L455.8518226209249,226.33930224883764 M455.8518226209249,226.33930224883764 L475.2987134640031,235.18095471296309 M475.2735523332581,272.5791266363427 L455.8331481866976,263.73449722454916 M455.8331481866976,263.73449722454916 L433.38204129501565,257.70951901431886 M433.38204129501565,257.70951901431886 L409.1278128576462,254.82710167135627 M409.1278128576462,254.82710167135627 L384.3740660004161,255.24165652295858 M384.3740660004161,255.24165652295858 L360.4509999956451,258.9309818968628 M360.4509999956451,258.9309818968628 L338.64457632859484,265.69742097035726 M338.64457632859484,265.69742097035726 L320.128030680371,275.1782601419587 M320.128030680371,275.1782601419587 L305.8990896376032,286.86484900768346 M305.8990896376032,286.86484900768346 L296.7262984623256,300.1294841246799 M296.7262984623256,300.1294841246799 L293.10728622374046,314.2587714443346 M293.10728622374046,314.2587714443346 L295.24128143741524,328.49172136674173 M295.24128143741524,328.49172136674173 L303.01748454615836,342.060597394397 M303.01748454615836,342.060597394397 L316.02013343707966,354.2324233438126 M316.02013343707966,354.2324233438126 L333.5501974443993,364.34879409857723 M333.5501974443993,364.34879409857723 L354.66263285189314,371.86184870470396 M354.66263285189314,371.86184870470396 L378.21732902110983,376.3643361964764 M378.21732902110983,376.3643361964764 L402.9409939429555,377.6120366505978 M402.9409939429555,377.6120366505978 L427.4965037873593,375.5372549906489 M427.4965037873593,375.5372549906489 L450.5559443849539,370.25256018382083 M450.5559443849539,370.25256018382083 L470.87304112737854,362.0445576234095 M470.87304112737854,362.0445576234095 L487.3510123792337,351.3580768047337 M487.3510123792337,351.3580768047337 L499.1020409731836,338.7716960071445 M499.1020409731836,338.7716960071445 L505.49499987080196,324.9660291597823 M505.49499987080196,324.9660291597823 L506.18897655989747,310.68657174481274 M506.18897655989747,310.68657174481274 L501.15086380763296,296.7032766139553 M501.15086380763296,296.7032766139553 L490.65621467888366,283.76899848951905 M490.65621467888366,283.76899848951905 L475.2735523332581,272.5791266363427 M475.2735523332581,272.5791266363427 L475.2987134640031,235.18095471296309" stroke="black"  stroke-width="4"  fill="red"/></svg>